<svg width="80" height="80" viewBox="0 0 80 80" fill="none" xmlns="http://www.w3.org/2000/svg">
<rect width="80" height="80" rx="40" fill="url(#paint0_linear_2293_450)"/>
<path d="M60 30H20V60C20 62.75 22.25 65 25 65H55C57.75 65 60 62.75 60 60V30Z" fill="#616161"/>
<path d="M55 15H25C22.25 15 20 17.25 20 20V31.25H60V20C60 17.25 57.75 15 55 15Z" fill="#3A77D1"/>
<path d="M55 27.5H25C24.25 27.5 23.75 27 23.75 26.25V20C23.75 19.25 24.25 18.75 25 18.75H55C55.75 18.75 56.25 19.25 56.25 20V26.25C56.25 27 55.75 27.5 55 27.5Z" fill="#9CCC65"/>
<path d="M51.25 22.5H53.75V25H51.25V22.5ZM46.25 22.5H48.75V25H46.25V22.5Z" fill="#33691E"/>
<path d="M55 38.75H51.25C50.5 38.75 50 38.25 50 37.5V35C50 34.25 50.5 33.75 51.25 33.75H55C55.75 33.75 56.25 34.25 56.25 35V37.5C56.25 38.25 55.75 38.75 55 38.75Z" fill="#FF5252"/>
<path d="M28.75 38.75H25C24.25 38.75 23.75 38.25 23.75 37.5V35C23.75 34.25 24.25 33.75 25 33.75H28.75C29.5 33.75 30 34.25 30 35V37.5C30 38.25 29.5 38.75 28.75 38.75ZM37.5 38.75H33.75C33 38.75 32.5 38.25 32.5 37.5V35C32.5 34.25 33 33.75 33.75 33.75H37.5C38.25 33.75 38.75 34.25 38.75 35V37.5C38.75 38.25 38.25 38.75 37.5 38.75ZM46.25 38.75H42.5C41.75 38.75 41.25 38.25 41.25 37.5V35C41.25 34.25 41.75 33.75 42.5 33.75H46.25C47 33.75 47.5 34.25 47.5 35V37.5C47.5 38.25 47 38.75 46.25 38.75ZM28.75 46.25H25C24.25 46.25 23.75 45.75 23.75 45V42.5C23.75 41.75 24.25 41.25 25 41.25H28.75C29.5 41.25 30 41.75 30 42.5V45C30 45.75 29.5 46.25 28.75 46.25ZM37.5 46.25H33.75C33 46.25 32.5 45.75 32.5 45V42.5C32.5 41.75 33 41.25 33.75 41.25H37.5C38.25 41.25 38.75 41.75 38.75 42.5V45C38.75 45.75 38.25 46.25 37.5 46.25ZM46.25 46.25H42.5C41.75 46.25 41.25 45.75 41.25 45V42.5C41.25 41.75 41.75 41.25 42.5 41.25H46.25C47 41.25 47.5 41.75 47.5 42.5V45C47.5 45.75 47 46.25 46.25 46.25ZM28.75 53.75H25C24.25 53.75 23.75 53.25 23.75 52.5V50C23.75 49.25 24.25 48.75 25 48.75H28.75C29.5 48.75 30 49.25 30 50V52.5C30 53.25 29.5 53.75 28.75 53.75ZM37.5 53.75H33.75C33 53.75 32.5 53.25 32.5 52.5V50C32.5 49.25 33 48.75 33.75 48.75H37.5C38.25 48.75 38.75 49.25 38.75 50V52.5C38.75 53.25 38.25 53.75 37.5 53.75ZM46.25 53.75H42.5C41.75 53.75 41.25 53.25 41.25 52.5V50C41.25 49.25 41.75 48.75 42.5 48.75H46.25C47 48.75 47.5 49.25 47.5 50V52.5C47.5 53.25 47 53.75 46.25 53.75ZM28.75 61.25H25C24.25 61.25 23.75 60.75 23.75 60V57.5C23.75 56.75 24.25 56.25 25 56.25H28.75C29.5 56.25 30 56.75 30 57.5V60C30 60.75 29.5 61.25 28.75 61.25ZM37.5 61.25H33.75C33 61.25 32.5 60.75 32.5 60V57.5C32.5 56.75 33 56.25 33.75 56.25H37.5C38.25 56.25 38.75 56.75 38.75 57.5V60C38.75 60.75 38.25 61.25 37.5 61.25ZM46.25 61.25H42.5C41.75 61.25 41.25 60.75 41.25 60V57.5C41.25 56.75 41.75 56.25 42.5 56.25H46.25C47 56.25 47.5 56.75 47.5 57.5V60C47.5 60.75 47 61.25 46.25 61.25Z" fill="#E0E0E0"/>
<path d="M55 46.25H51.25C50.5 46.25 50 45.75 50 45V42.5C50 41.75 50.5 41.25 51.25 41.25H55C55.75 41.25 56.25 41.75 56.25 42.5V45C56.25 45.75 55.75 46.25 55 46.25ZM55 53.75H51.25C50.5 53.75 50 53.25 50 52.5V50C50 49.25 50.5 48.75 51.25 48.75H55C55.75 48.75 56.25 49.25 56.25 50V52.5C56.25 53.25 55.75 53.75 55 53.75ZM55 61.25H51.25C50.5 61.25 50 60.75 50 60V57.5C50 56.75 50.5 56.25 51.25 56.25H55C55.75 56.25 56.25 56.75 56.25 57.5V60C56.25 60.75 55.75 61.25 55 61.25Z" fill="#BDBDBD"/>
<defs>
<linearGradient id="paint0_linear_2293_450" x1="0" y1="40" x2="80" y2="40" gradientUnits="userSpaceOnUse">
<stop stop-color="#FFA1A1"/>
<stop offset="1" stop-color="#FF7B7B"/>
</linearGradient>
</defs>
</svg>
